<svg id="Capa_1" xmlns="http://www.w3.org/2000/svg" viewBox="0 0 212.9 236.3"><style>.st0{fill:#77cbea}.st1{fill:#f18fa5}.st2{fill:#d3d800}.st3{fill:#fff}</style><path transform="rotate(-180 106.472 35.058)" class="st0" d="M0 0h212.9v70.1H0z"/><path transform="rotate(-180 92.19 118.158)" class="st1" d="M0 83.1h184.4v70.1H0z"/><path transform="rotate(-180 86.996 201.258)" class="st2" d="M0 166.2h174v70.1H0z"/><path class="st3" d="M52.8 30.9l-3.3 3.9c-1.9-2-4.6-3.2-8-3.2-4.8 0-8.3 3.6-8.3 8.9 0 5.3 3.5 8.9 8.3 8.9 3.5 0 6.4-1.2 8.2-3.4l3.4 3.4c-2.5 3.3-6.6 5.2-11.9 5.2-8.3 0-14.1-5.7-14.1-14.1 0-8.5 5.8-14.2 14.1-14.2 5.1 0 9.1 1.7 11.6 4.6zM59.7 54.5v-39h6v39h-6zM101.4 40.5c0 8.4-5.9 14.2-14.5 14.2-8.7 0-14.6-5.8-14.6-14.2 0-8.5 5.9-14.2 14.6-14.2 8.6 0 14.5 5.8 14.5 14.2zm-23.1.1c0 5.4 3.5 9.1 8.6 9.1 5 0 8.5-3.7 8.5-9.1 0-5.4-3.5-9-8.5-9-5-.1-8.6 3.6-8.6 9zM133.1 54.5h-6V49c-1.9 3.9-5.4 5.6-10 5.7-6.4 0-10.2-4.1-10.2-10.8V26.5h6v15.7c0 4.2 2.5 6.8 6.5 6.8 4.8-.1 7.7-3.8 7.7-8.7V26.5h6v28zM168.6 54.5h-6v-4.8c-2 3.3-5.4 5-9.8 5-8 0-13.4-5.8-13.4-14.3 0-8.4 5.4-14.1 13.3-14.1 4.5 0 7.9 1.8 9.9 5.1V15.5h6v39zm-6-13.9c0-5.4-3.5-9.2-8.6-9.2-5 0-8.6 3.8-8.6 9.2.1 5.3 3.5 9.1 8.6 9.1s8.6-3.8 8.6-9.1z"/><g><path class="st3" d="M75.2 120.3v17.4h-6V122c0-4.3-2.5-6.8-6.6-6.8-4.8.2-7.7 3.8-7.7 8.7v13.8h-6V122c0-4.3-2.5-6.8-6.6-6.8-4.8.2-7.8 3.8-7.8 8.7v13.8h-6v-27.9h6v5.4c1.9-3.9 5.5-5.6 10.1-5.6 5 0 8.4 2.5 9.7 6.7 1.8-4.7 5.5-6.7 10.6-6.7 6.5-.1 10.3 4 10.3 10.7zM100.1 134.2c-2 2.5-5.2 3.7-9.2 3.7-6 0-9.8-3.7-9.8-8.7 0-5.1 3.8-8.3 10.6-8.4h8.5v-.8c0-3.5-2.3-5.6-6.7-5.6-2.7 0-5.5.9-8.2 2.8l-2.5-4.2c3.9-2.3 6.7-3.5 12-3.5 7.2 0 11.2 3.7 11.3 9.8l.1 18.3h-5.9v-3.4zm-.1-6.4v-2.6h-7.6c-3.9 0-5.8 1.1-5.8 3.7 0 2.5 2 4.1 5.4 4.1 4.4.1 7.7-2.1 8-5.2zM140.8 120.3v17.4h-6V122c0-4.2-2.5-6.8-6.7-6.8-4.6.1-7.5 3.3-7.9 7.6v14.9h-6v-27.9h6v5.4c2-3.9 5.6-5.6 10.3-5.6 6.4-.1 10.3 4 10.3 10.7z"/></g><g><path class="st3" d="M28.6 220.7v-39h6v39h-6zM60.5 217.3c-2 2.5-5.2 3.7-9.2 3.7-6 0-9.8-3.7-9.8-8.7 0-5.1 3.8-8.3 10.6-8.4h8.5v-.8c0-3.5-2.3-5.6-6.7-5.6-2.7 0-5.5.9-8.2 2.8l-2.5-4.2c3.9-2.3 6.7-3.5 12-3.5 7.2 0 11.2 3.7 11.3 9.8l.1 18.3h-5.9v-3.4zm0-6.4v-2.6h-7.6c-3.9 0-5.8 1.1-5.8 3.7 0 2.5 2 4.1 5.4 4.1 4.4.1 7.7-2.1 8-5.2zM103.9 206.9c0 8.3-5.2 14.1-13.2 14.1-4.5 0-7.8-1.8-9.9-5v4.8h-6v-39h6v15.9c2-3.3 5.4-5 9.8-5 7.9-.1 13.3 5.7 13.3 14.2zm-6-.2c0-5.2-3.5-9-8.5-9s-8.5 3.8-8.5 9c0 5.4 3.5 9.1 8.5 9.1 4.9 0 8.5-3.8 8.5-9.1zM128.4 195.4l-2.2 4.5c-2.5-1.5-5.6-2.5-8-2.5-2.4 0-4.1.8-4.1 2.8 0 5.1 14.9 2.4 14.8 12.5 0 5.7-5.1 8.3-10.7 8.3-4.1 0-8.5-1.4-11.2-3.9l2.2-4.3c2.4 2.2 6.3 3.5 9.3 3.5 2.6 0 4.6-.9 4.6-3 0-5.7-14.7-2.5-14.6-12.6 0-5.7 4.9-8.1 10.3-8.1 3.3-.1 7 1 9.6 2.8z"/></g></svg>